HIERARCHY
ROOT Root
{
  OFFSET 0.0 0.0 0.0
  CHANNELS 6 Xposition Yposition Zposition Zrotation Yrotation Xrotation
  JOINT Hips
  {
    OFFSET 0.0 100.0 0.0
    CHANNELS 6 Xposition Yposition Zposition Zrotation Yrotation Xrotation
    JOINT Spine1
    {
      OFFSET 5.003913 -0.037094 -0.013727
      CHANNELS 3 Zrotation Yrotation Xrotation
      JOINT Spine2
      {
        OFFSET 7.125363 -1e-06 0.0
        CHANNELS 3 Zrotation Yrotation Xrotation
        JOINT Chest
        {
          OFFSET 7.594027 1e-06 0.0
          CHANNELS 3 Zrotation Yrotation Xrotation
          JOINT Neck1
          {
            OFFSET 26.313086 -0.460272 -0.181672
            CHANNELS 3 Zrotation Yrotation Xrotation
            JOINT Neck2
            {
              OFFSET 8.045911 0.0 0.0
              CHANNELS 3 Zrotation Yrotation Xrotation
              JOINT Head
              {
                OFFSET 6.432774 0.0 0.0
                CHANNELS 3 Zrotation Yrotation Xrotation
                JOINT HeadEnd
                {
                  OFFSET 16.169773 0.06451 0.00362
                  CHANNELS 3 Zrotation Yrotation Xrotation
                }
                JOINT Jaw
                {
                  OFFSET 0.108741 3.12938 0.002639
                  CHANNELS 3 Zrotation Yrotation Xrotation
                }
                JOINT LeftEye
                {
                  OFFSET 4.45173 8.166359 3.206392
                  CHANNELS 3 Zrotation Yrotation Xrotation
                }
                JOINT RightEye
                {
                  OFFSET 4.436895 8.135758 -3.222429
                  CHANNELS 3 Zrotation Yrotation Xrotation
                }
              }
            }
          }
          JOINT LeftShoulder
          {
            OFFSET 23.218927 5.195579 1.621656
            CHANNELS 3 Zrotation Yrotation Xrotation
            JOINT LeftArm
            {
              OFFSET 15.902118 2e-06 -2e-06
              CHANNELS 3 Zrotation Yrotation Xrotation
              JOINT LeftForeArm
              {
                OFFSET 28.739307 0.0 -1e-06
                CHANNELS 3 Zrotation Yrotation Xrotation
                JOINT LeftHand
                {
                  OFFSET 27.093981 -4e-06 0.0
                  CHANNELS 3 Zrotation Yrotation Xrotation
                  JOINT LeftHandThumb1
                  {
                    OFFSET 2.276781 3.380274 0.83384
                    CHANNELS 3 Zrotation Yrotation Xrotation
                    JOINT LeftHandThumb2
                    {
                      OFFSET 4.705309 -1e-06 -1e-06
                      CHANNELS 3 Zrotation Yrotation Xrotation
                      JOINT LeftHandThumb3
                      {
                        OFFSET 2.798515 0.0 3e-06
                        CHANNELS 3 Zrotation Yrotation Xrotation
                        JOINT LeftHandThumbEnd
                        {
                          OFFSET 3.180793 4e-06 -4e-06
                          CHANNELS 3 Zrotation Yrotation Xrotation
                        }
                      }
                    }
                  }
                  JOINT LeftHandIndex1
                  {
                    OFFSET 3.247786 2.352677 0.137192
                    CHANNELS 3 Zrotation Yrotation Xrotation
                    JOINT LeftHandIndex2
                    {
                      OFFSET 6.367095 1e-06 0.0
                      CHANNELS 3 Zrotation Yrotation Xrotation
                      JOINT LeftHandIndex3
                      {
                        OFFSET 3.662364 0.0 0.0
                        CHANNELS 3 Zrotation Yrotation Xrotation
                        JOINT LeftHandIndex4
                        {
                          OFFSET 2.329242 4e-06 -4e-06
                          CHANNELS 3 Zrotation Yrotation Xrotation
                          JOINT LeftHandIndexEnd
                          {
                            OFFSET 2.767823 1e-06 0.0
                            CHANNELS 3 Zrotation Yrotation Xrotation
                          }
                        }
                      }
                    }
                  }
                  JOINT LeftHandMiddle1
                  {
                    OFFSET 3.163612 0.945023 -0.406112
                    CHANNELS 3 Zrotation Yrotation Xrotation
                    JOINT LeftHandMiddle2
                    {
                      OFFSET 6.276789 3e-06 0.0
                      CHANNELS 3 Zrotation Yrotation Xrotation
                      JOINT LeftHandMiddle3
                      {
                        OFFSET 4.35652 -1e-06 4e-06
                        CHANNELS 3 Zrotation Yrotation Xrotation
                        JOINT LeftHandMiddle4
                        {
                          OFFSET 2.996877 0.0 8e-06
                          CHANNELS 3 Zrotation Yrotation Xrotation
                          JOINT LeftHandMiddleEnd
                          {
                            OFFSET 2.323256 3e-06 -4e-06
                            CHANNELS 3 Zrotation Yrotation Xrotation
                          }
                        }
                      }
                    }
                  }
                  JOINT LeftHandRing1
                  {
                    OFFSET 2.882606 -0.309162 0.107445
                    CHANNELS 3 Zrotation Yrotation Xrotation
                    JOINT LeftHandRing2
                    {
                      OFFSET 6.033198 0.0 4e-06
                      CHANNELS 3 Zrotation Yrotation Xrotation
                      JOINT LeftHandRing3
                      {
                        OFFSET 4.350578 3e-06 0.0
                        CHANNELS 3 Zrotation Yrotation Xrotation
                        JOINT LeftHandRing4
                        {
                          OFFSET 2.651321 2e-06 -7e-06
                          CHANNELS 3 Zrotation Yrotation Xrotation
                          JOINT LeftHandRingEnd
                          {
                            OFFSET 1.937663 1e-06 -4e-06
                            CHANNELS 3 Zrotation Yrotation Xrotation
                          }
                        }
                      }
                    }
                  }
                  JOINT LeftHandPinky1
                  {
                    OFFSET 2.865315 -1.525436 0.575687
                    CHANNELS 3 Zrotation Yrotation Xrotation
                    JOINT LeftHandPinky2
                    {
                      OFFSET 5.54936 1e-06 -8e-06
                      CHANNELS 3 Zrotation Yrotation Xrotation
                      JOINT LeftHandPinky3
                      {
                        OFFSET 3.070974 0.0 -4e-06
                        CHANNELS 3 Zrotation Yrotation Xrotation
                        JOINT LeftHandPinky4
                        {
                          OFFSET 1.549672 1e-06 0.0
                          CHANNELS 3 Zrotation Yrotation Xrotation
                          JOINT LeftHandPinkyEnd
                          {
                            OFFSET 1.952123 0.0 0.0
                            CHANNELS 3 Zrotation Yrotation Xrotation
                          }
                        }
                      }
                    }
                  }
                }
              }
            }
          }
          JOINT RightShoulder
          {
            OFFSET 23.161716 5.296122 -1.380114
            CHANNELS 3 Zrotation Yrotation Xrotation
            JOINT RightArm
            {
              OFFSET -16.027195 -2e-06 1.1e-05
              CHANNELS 3 Zrotation Yrotation Xrotation
              JOINT RightForeArm
              {
                OFFSET -28.736639 4e-06 2e-06
                CHANNELS 3 Zrotation Yrotation Xrotation
                JOINT RightHand
                {
                  OFFSET -27.133619 6e-06 0.0
                  CHANNELS 3 Zrotation Yrotation Xrotation
                  JOINT RightHandThumb1
                  {
                    OFFSET -2.274328 -3.351035 -0.83067
                    CHANNELS 3 Zrotation Yrotation Xrotation
                    JOINT RightHandThumb2
                    {
                      OFFSET -4.703594 -3e-06 2e-06
                      CHANNELS 3 Zrotation Yrotation Xrotation
                      JOINT RightHandThumb3
                      {
                        OFFSET -2.794935 -4e-06 -3e-06
                        CHANNELS 3 Zrotation Yrotation Xrotation
                        JOINT RightHandThumbEnd
                        {
                          OFFSET -3.183852 4e-06 1e-06
                          CHANNELS 3 Zrotation Yrotation Xrotation
                        }
                      }
                    }
                  }
                  JOINT RightHandIndex1
                  {
                    OFFSET -3.253496 -2.33755 -0.127667
                    CHANNELS 3 Zrotation Yrotation Xrotation
                    JOINT RightHandIndex2
                    {
                      OFFSET -6.344434 0.0 0.0
                      CHANNELS 3 Zrotation Yrotation Xrotation
                      JOINT RightHandIndex3
                      {
                        OFFSET -3.654871 0.0 -8e-06
                        CHANNELS 3 Zrotation Yrotation Xrotation
                        JOINT RightHandIndex4
                        {
                          OFFSET -2.327586 -1e-06 0.0
                          CHANNELS 3 Zrotation Yrotation Xrotation
                          JOINT RightHandIndexEnd
                          {
                            OFFSET -2.770001 3e-06 8e-06
                            CHANNELS 3 Zrotation Yrotation Xrotation
                          }
                        }
                      }
                    }
                  }
                  JOINT RightHandMiddle1
                  {
                    OFFSET -3.168223 -0.944764 0.411762
                    CHANNELS 3 Zrotation Yrotation Xrotation
                    JOINT RightHandMiddle2
                    {
                      OFFSET -6.266691 -1e-06 -4e-06
                      CHANNELS 3 Zrotation Yrotation Xrotation
                      JOINT RightHandMiddle3
                      {
                        OFFSET -4.348901 0.0 0.0
                        CHANNELS 3 Zrotation Yrotation Xrotation
                        JOINT RightHandMiddle4
                        {
                          OFFSET -3.00024 2e-06 -4e-06
                          CHANNELS 3 Zrotation Yrotation Xrotation
                          JOINT RightHandMiddleEnd
                          {
                            OFFSET -2.321477 -4e-06 -4e-06
                            CHANNELS 3 Zrotation Yrotation Xrotation
                          }
                        }
                      }
                    }
                  }
                  JOINT RightHandRing1
                  {
                    OFFSET -2.885654 0.293261 -0.119232
                    CHANNELS 3 Zrotation Yrotation Xrotation
                    JOINT RightHandRing2
                    {
                      OFFSET -6.032835 -1e-06 -4e-06
                      CHANNELS 3 Zrotation Yrotation Xrotation
                      JOINT RightHandRing3
                      {
                        OFFSET -4.33881 0.0 -4e-06
                        CHANNELS 3 Zrotation Yrotation Xrotation
                        JOINT RightHandRing4
                        {
                          OFFSET -2.654903 -4e-06 -4e-06
                          CHANNELS 3 Zrotation Yrotation Xrotation
                          JOINT RightHandRingEnd
                          {
                            OFFSET -1.935122 0.0 4e-06
                            CHANNELS 3 Zrotation Yrotation Xrotation
                          }
                        }
                      }
                    }
                  }
                  JOINT RightHandPinky1
                  {
                    OFFSET -2.866241 1.503904 -0.60527
                    CHANNELS 3 Zrotation Yrotation Xrotation
                    JOINT RightHandPinky2
                    {
                      OFFSET -5.553177 -2e-06 0.0
                      CHANNELS 3 Zrotation Yrotation Xrotation
                      JOINT RightHandPinky3
                      {
                        OFFSET -3.062664 -1e-06 -4e-06
                        CHANNELS 3 Zrotation Yrotation Xrotation
                        JOINT RightHandPinky4
                        {
                          OFFSET -1.546529 2e-06 4e-06
                          CHANNELS 3 Zrotation Yrotation Xrotation
                          JOINT RightHandPinkyEnd
                          {
                            OFFSET -1.952341 0.0 -4e-06
                            CHANNELS 3 Zrotation Yrotation Xrotation
                          }
                        }
                      }
                    }
                  }
                }
              }
            }
          }
        }
      }
    }
    JOINT LeftLeg
    {
      OFFSET -8.443107 2.567604 10.043214
      CHANNELS 3 Zrotation Yrotation Xrotation
      JOINT LeftShin
      {
        OFFSET 43.229198 1e-06 -1e-06
        CHANNELS 3 Zrotation Yrotation Xrotation
        JOINT LeftFoot
        {
          OFFSET 42.298611 1e-06 1e-06
          CHANNELS 3 Zrotation Yrotation Xrotation
          JOINT LeftToeBase
          {
            OFFSET 14.165858 1e-06 0.0
            CHANNELS 3 Zrotation Yrotation Xrotation
            JOINT LeftToeEnd
            {
              OFFSET 6.7141 -0.234461 0.0
              CHANNELS 3 Zrotation Yrotation Xrotation
            }
          }
        }
      }
    }
    JOINT RightLeg
    {
      OFFSET -8.303923 2.592729 -10.047278
      CHANNELS 3 Zrotation Yrotation Xrotation
      JOINT RightShin
      {
        OFFSET -43.369682 0.0 1e-06
        CHANNELS 3 Zrotation Yrotation Xrotation
        JOINT RightFoot
        {
          OFFSET -42.260784 4e-06 2e-06
          CHANNELS 3 Zrotation Yrotation Xrotation
          JOINT RightToeBase
          {
            OFFSET -14.222245 -2e-06 -1e-06
            CHANNELS 3 Zrotation Yrotation Xrotation
            JOINT RightToeEnd
            {
              OFFSET -6.660062 0.232574 -2e-06
              CHANNELS 3 Zrotation Yrotation Xrotation
            }
          }
        }
      }
    }
  }
}
MOTION
Frames: 4
Frame Time: 0.03333333333333333
0.0 0.0 0.0 0.0 -0.0 0.0 2.168619 49.635235 163.954117 83.425545 -54.031528 98.125137 9.563231 0.456847 0.805404 -5.111184 -0.418176 -0.644729 26.187325 3.223546 -1.422605 14.297217 0.656917 3.69449 -2.56482 -0.984036 -1.328199 -33.055645 -4.282113 -1.597727 5e-06 -0.0 0.0 -0.219328 -0.001655 -0.007109 0.031992 -0.026659 0.065665 0.092827 0.014787 -0.070899 -24.501575 -70.526741 31.573339 89.054588 -2.972756 -34.16296 12.63187 -0.03744 0.135402 32.636051 69.208275 27.220764 17.636637 -26.322744 52.411213 -19.466665 -14.395598 29.410395 -1e-06 -8.774823 -1e-06 14.712736 -18.327162 6.7712 -0.609777 -1.795654 -3.889329 -4.80709 -11.046813 -2.93785 4e-06 -20.976021 2e-06 -5.01997 -25.033562 -4.031882 5e-06 -0.0 1e-06 -10.634537 -5.686973 -3.565588 10.573277 -17.922956 -3.113904 2e-06 -13.821214 -0.0 -0.501778 -31.181507 -4.027018 -10.064816 -58.080055 6.451551 -13.982718 -7.150201 -2.875044 13.772733 -8.401493 -3.21824 0.347735 -34.211559 0.771653 -0.963029 -17.733376 2.621021 0.0 -1e-06 -0.0 -17.346422 -20.095221 -4.201783 21.757561 -1.638378 3.866428 1e-06 -6.338825 1e-06 -1.697588 -22.591749 -6.194007 -1e-06 -6e-06 -2e-06 -146.697754 -89.38166 -21.052097 66.20253 -8.796861 -37.1637 39.88052 -1.592542 -0.63123 60.208233 42.344048 67.124107 22.182121 -20.375898 49.933323 -16.701817 -16.743528 28.476532 -3e-06 -12.690601 -1e-06 16.286997 -18.522907 2.598629 -0.105919 -1.513858 -4.275881 -5.039042 -5.612872 -2.953557 3e-06 -11.020525 -1e-06 -6.111298 -15.895334 -3.840472 0.0 0.0 -1e-06 -10.283371 -5.680289 -4.341839 11.028296 -11.302407 -2.372633 -1.384269 -14.23858 -6.320121 -0.625438 -26.924194 -3.827602 -4.07964 -50.985542 -4.043954 -13.708526 -7.363478 -3.720938 18.141153 -14.052739 -3.242675 5e-06 -18.787271 -2e-06 -0.429711 -8.456046 2.555504 0.0 0.0 0.0 -15.923536 -20.094484 -5.473586 30.419222 -7.190827 1.735927 3e-06 -8.162928 -1e-06 -1.861903 -22.861473 -6.167942 0.0 -2e-06 -1e-06 118.593857 -5.63875 2.952503 119.788406 -0.251081 0.211615 -58.171047 5.827738 6.583864 -11.025785 1.502729 2.010015 -0.999999 0.0 -0.0 -57.47908 -1.873469 -10.534307 103.956345 0.071386 0.096277 -32.469315 20.695862 4.26494 -8.055508 0.304981 1.737566 -1.000003 -1e-06 1e-06 
0.0 0.0 0.0 0.0 -0.0 0.0 2.021828 49.62746 165.19603 84.071274 -53.503746 96.604179 9.784193 0.29741 0.893809 -5.037978 -0.477253 -0.263658 26.375216 2.474264 -1.085615 13.910273 0.614684 3.600677 -2.568999 -1.050121 -1.416478 -33.265381 -4.033304 -1.78111 6e-06 0.0 0.0 -0.207908 -0.01512 -0.006693 0.069358 -0.044096 0.062207 0.132546 0.003771 -0.067483 -26.349058 -70.913391 33.367527 89.946854 -3.491222 -33.6189 12.09123 -0.259757 0.116683 33.489784 69.762833 28.524275 17.636625 -26.322725 52.411182 -19.466652 -14.395596 29.410378 -1e-06 -8.774819 -1e-06 14.770095 -18.329958 6.78194 -0.609777 -1.795652 -3.889327 -4.807087 -11.04681 -2.93785 4e-06 -20.976011 1e-06 -5.019969 -25.033552 -4.031882 6e-06 0.0 0.0 -10.634531 -5.686969 -3.565586 10.573271 -17.922947 -3.113897 3e-06 -13.821206 1e-06 -0.501778 -31.181498 -4.027014 -10.081943 -58.177692 6.573276 -13.982711 -7.150196 -2.875042 13.772727 -8.401489 -3.218239 0.347735 -34.211544 0.771655 -0.963029 -17.733368 2.621021 0.0 -0.0 0.0 -17.346416 -20.095217 -4.20178 21.757555 -1.638374 3.866429 0.0 -6.338821 1e-06 -1.697589 -22.591742 -6.194004 -1e-06 -5e-06 -1e-06 -151.522537 -87.094177 -16.882631 65.022354 -3.959754 -38.981464 38.408474 -0.759058 -0.587291 54.523155 43.738525 60.883919 22.182114 -20.375891 49.933319 -16.701809 -16.743528 28.47653 -1e-06 -12.690598 -1e-06 15.948972 -18.340561 2.741303 -0.105919 -1.513856 -4.275883 -5.039041 -5.61287 -2.953556 3e-06 -11.020525 -1e-06 -6.111299 -15.895334 -3.840471 -0.0 -0.0 1e-06 -10.28337 -5.68029 -4.341839 11.028292 -11.302403 -2.372631 -1.384269 -14.238579 -6.32012 -0.625441 -26.924187 -3.827601 -3.999899 -50.641022 -4.060431 -13.708524 -7.363479 -3.720939 18.141146 -14.052735 -3.242673 3e-06 -18.787266 -0.0 -0.429712 -8.456044 2.555503 -1e-06 -1e-06 0.0 -15.923536 -20.094484 -5.473584 30.41921 -7.190823 1.735927 3e-06 -8.162924 -1e-06 -1.861906 -22.861469 -6.167942 -0.0 -2e-06 -1e-06 113.026894 -6.123926 3.132917 125.611412 0.204759 0.347617 -59.699848 6.962829 7.805186 -11.870305 1.496735 1.935491 -0.999997 -0.0 -0.0 -55.357521 -1.022325 -10.042488 102.517326 -0.088465 0.077004 -33.012676 20.664585 3.9733 -8.256362 0.291384 1.746377 -1.000003 0.0 -0.0 
0.0 0.0 0.0 0.0 -0.0 0.0 1.948277 49.52047 166.48674 84.879837 -53.039932 94.51329 9.942154 0.11998 1.016578 -4.947827 -0.509343 0.214544 26.627037 1.70135 -0.614996 13.392776 0.387004 3.478183 -2.590802 -1.079829 -1.475277 -33.367603 -3.839558 -1.918212 6e-06 -0.0 0.0 -0.197544 -0.026862 -0.004949 0.117622 -0.055182 0.063511 0.183669 -0.009248 -0.066381 -28.762012 -71.421509 35.705673 90.631035 -4.137289 -33.431019 11.73352 -0.557183 0.091373 34.868614 69.994812 30.285097 17.636629 -26.322737 52.411205 -19.46666 -14.395598 29.410393 -2e-06 -8.774821 -1e-06 14.801293 -18.382849 6.782144 -0.609776 -1.795654 -3.889327 -4.807088 -11.046809 -2.93785 5e-06 -20.976019 0.0 -5.019969 -25.03356 -4.031879 6e-06 0.0 1e-06 -10.634535 -5.68697 -3.565587 10.573276 -17.922951 -3.113901 4e-06 -13.82121 0.0 -0.501776 -31.181505 -4.027016 -10.174005 -58.290127 6.74841 -13.982714 -7.150198 -2.875043 13.772729 -8.401491 -3.21824 0.347735 -34.211544 0.771653 -0.963027 -17.733366 2.621019 -0.0 -0.0 -0.0 -17.346416 -20.095213 -4.201784 21.757557 -1.638376 3.866428 1e-06 -6.338823 2e-06 -1.697589 -22.591743 -6.194005 -0.0 -6e-06 -1e-06 -150.155182 -84.540916 -18.990536 63.895191 1.215995 -39.953716 34.85413 -0.098974 -0.396941 48.272404 45.235283 53.721302 22.1821 -20.375891 49.933319 -16.701817 -16.74353 28.476534 -1e-06 -12.690598 1e-06 15.746205 -18.161182 2.799586 -0.105919 -1.513856 -4.27588 -5.039039 -5.612869 -2.953556 4e-06 -11.020523 -3e-06 -6.111295 -15.89533 -3.840469 0.0 -0.0 0.0 -10.283365 -5.680287 -4.341838 11.028292 -11.302404 -2.372634 -1.384267 -14.238576 -6.320121 -0.625438 -26.924183 -3.827602 -3.96765 -50.396847 -4.054709 -13.708519 -7.363474 -3.720938 18.141146 -14.052738 -3.242677 6e-06 -18.787268 -1e-06 -0.429714 -8.456044 2.555503 -0.0 -0.0 0.0 -15.92353 -20.094481 -5.473584 30.419205 -7.190824 1.735922 3e-06 -8.162925 -0.0 -1.8619 -22.861465 -6.167941 -0.0 -2e-06 -1e-06 107.80603 -6.943864 3.326133 130.301453 0.558073 0.441531 -61.021397 8.625188 8.892097 -12.78656 1.471291 1.856615 -0.999995 1e-06 -0.0 -53.302925 -0.063059 -9.252982 101.151199 -0.35491 0.075471 -33.669476 20.878229 3.810576 -8.575723 0.291662 1.736354 -1.000005 0.0 0.0 
0.0 0.0 0.0 0.0 -0.0 0.0 1.945207 49.330856 167.80014 85.784454 -52.663517 91.803925 10.023355 -0.078947 1.18912 -4.836374 -0.493652 0.807613 26.935219 0.891928 -0.015389 12.764318 -0.062159 3.278796 -2.622642 -1.05347 -1.449942 -33.331093 -3.688281 -1.97145 6e-06 0.0 -0.0 -0.18783 -0.044149 0.003329 0.188353 -0.069094 0.081498 0.25527 -0.029553 -0.069932 -31.977173 -72.01255 38.883308 91.079353 -4.942521 -33.495235 11.61008 -0.863532 0.057677 36.606415 70.027908 32.175602 17.636625 -26.322727 52.411182 -19.466654 -14.395596 29.410385 -1e-06 -8.774819 -1e-06 14.82397 -18.460583 6.755589 -0.609777 -1.795654 -3.889325 -4.807087 -11.046809 -2.93785 3e-06 -20.976011 1e-06 -5.019969 -25.033552 -4.031879 6e-06 -1e-06 0.0 -10.634531 -5.68697 -3.565587 10.57327 -17.922947 -3.113897 2e-06 -13.821206 -1e-06 -0.501776 -31.181498 -4.027017 -10.316151 -58.391739 6.937916 -13.982712 -7.150197 -2.875042 13.772726 -8.401491 -3.218241 0.347732 -34.211544 0.771655 -0.963029 -17.733366 2.621018 -1e-06 -1e-06 0.0 -17.346416 -20.095213 -4.20178 21.757555 -1.638376 3.866428 1e-06 -6.338824 1e-06 -1.69759 -22.591743 -6.194006 0.0 -5e-06 -1e-06 -148.778946 -81.709991 -21.14052 62.85878 6.450262 -39.824978 29.691877 0.206568 -0.237653 41.631271 46.441647 45.770565 22.182117 -20.375898 49.933323 -16.701815 -16.743528 28.476532 -1e-06 -12.690601 -1e-06 15.728257 -17.9757 2.740407 -0.105919 -1.513857 -4.275881 -5.039041 -5.612872 -2.953558 4e-06 -11.020529 -3e-06 -6.111298 -15.895338 -3.840469 -0.0 1e-06 0.0 -10.283369 -5.680289 -4.341839 11.028296 -11.302407 -2.372633 -1.384268 -14.238583 -6.320121 -0.62544 -26.924198 -3.8276 -3.972287 -50.27496 -4.020488 -13.708526 -7.363479 -3.72094 18.141153 -14.052739 -3.242675 7e-06 -18.787271 -1e-06 -0.42971 -8.456046 2.555503 -0.0 -1e-06 0.0 -15.923536 -20.09449 -5.473584 30.419214 -7.190826 1.735927 3e-06 -8.162927 -0.0 -1.861901 -22.861473 -6.167942 -1e-06 -3e-06 -2e-06 103.137733 -8.204084 3.685982 133.619247 0.830326 0.491843 -61.904594 10.510913 9.509998 -13.709443 1.433954 1.778413 -0.999999 -0.0 0.0 -51.415806 1.092711 -8.043441 99.801353 -0.664371 0.088387 -34.060474 21.441704 3.873896 -8.988851 0.303956 1.702218 -1.000004 -0.0 1e-06 
